<svg xmlns="http://www.w3.org/2000/svg" width="64" height="64"><path d="M0 0h64v64H0z" style="fill:#fff"/><rect width="58" height="58" x="3" y="3" rx="5" ry="5" style="opacity:.5;fill:none;fill-opacity:1;stroke:#000;stroke-width:2;stroke-linecap:square;stroke-miterlimit:10;stroke-dasharray:8,8;paint-order:markers stroke fill;stroke-dashoffset:0"/><path d="M43 21H21a2 2 0 0 0-2 2v18a2 2 0 0 0 2 2h8a1 1 0 0 0 .949-.684l1.853-5.56 4.573-1.827a1 1 0 0 0 .558-.558l1.827-4.569 5.56-1.853A1 1 0 0 0 45 27v-4a2 2 0 0 0-2-2M30.051 35.684 28.28 41H21v-3.5l6.5-6.5 3.803 3.803-.678.268a1 1 0 0 0-.574.613M43 26.279l-5.316 1.772a1 1 0 0 0-.613.578l-1.84 4.602-1.909.769-4.408-4.409a2 2 0 0 0-2.828 0L21 34.671V23h22zm1.585 4.125a1 1 0 0 0-.901-.138l-2.975.993a1 1 0 0 0-.613.576l-1.788 4.471-4.472 1.789a1 1 0 0 0-.576.613l-.992 2.975A1 1 0 0 0 33.216 43H43a2 2 0 0 0 2-2v-9.784a1 1 0 0 0-.415-.811ZM43 41h-8.396l.406-1.219 4.439-1.775a1 1 0 0 0 .557-.557l1.775-4.439L43 32.604Z" style="stroke-width:1;fill:#000;opacity:.5"/></svg>