<?xml version="1.0" encoding="UTF-8" standalone="no"?>
<!-- Created with Inkscape (http://www.inkscape.org/) -->

<svg
   width="256"
   height="64"
   viewBox="0 0 256 64"
   version="1.1"
   id="svg5"
   xml:space="preserve"
   xmlns="http://www.w3.org/2000/svg"
   xmlns:svg="http://www.w3.org/2000/svg"><defs
     id="defs2" /><path
     id="path1780"
     style="fill:#ffffff;fill-opacity:1"
     d="m 149.73438,5.2719265 c 0.001,-0.00113 0.006,0.00167 0.0102,0.00567 l 30.81518,30.5730805 c 0.27984,0.27772 0.45357,0.560648 0.38579,0.628607 l -0.004,0.0036 c -0.0677,0.06773 -0.3507,-0.106054 -0.62837,-0.385822 L 149.74045,5.2820367 c -0.004,-0.00454 -0.007,-0.00869 -0.006,-0.010205 z" /><path
     id="path1780-6"
     style="fill:#ffffff;fill-opacity:1"
     d="m 51.184671,-3.4939964 c 0.0011,-0.00112 0.0057,0.00167 0.0102,0.00586 l 30.81519,30.5730794 c 0.279837,0.27772 0.453566,0.560647 0.385788,0.628607 l -0.0036,0.0036 c -0.06773,0.06773 -0.350703,-0.106053 -0.628366,-0.385821 L 51.190733,-3.483885 c -0.0042,-0.00435 -0.0072,-0.00873 -0.0064,-0.010356 z" /><path
     id="path1780-0"
     style="fill:#ffffff;fill-opacity:1"
     d="m 146.1405,30.185291 c 7.3e-4,-7.82e-4 0.004,0.0012 0.007,0.0039 l 21.38988,21.221825 c 0.19423,0.192756 0.31483,0.389163 0.26777,0.436335 l -0.002,0.0025 c -0.047,0.04702 -0.24344,-0.07363 -0.43617,-0.267818 L 146.14471,30.192177 c -0.003,-0.0031 -0.005,-0.006 -0.005,-0.0071 z" /><path
     id="path1780-62"
     style="fill:#ffffff;fill-opacity:1"
     d="m 92.549679,7.5836728 c 0.0011,-0.00112 0.0057,0.00167 0.0102,0.00586 L 123.37507,38.162618 c 0.27984,0.27772 0.45356,0.560644 0.38578,0.628603 l -0.004,0.0036 c -0.0677,0.06773 -0.3507,-0.106054 -0.62837,-0.385822 L 92.555745,7.5937842 c -0.0042,-0.00435 -0.0072,-0.00873 -0.0064,-0.010356 z" /><path
     id="path1780-61"
     style="fill:#ffffff;fill-opacity:1"
     d="m 4.9055924,30.085465 c 0.00106,-0.0011 0.00567,0.0017 0.010205,0.0057 L 35.730979,60.664218 c 0.279836,0.27772 0.453566,0.560648 0.385788,0.628607 l -0.0036,0.0036 c -0.06773,0.06773 -0.350702,-0.106054 -0.628369,-0.385822 L 4.9116547,30.09539 c -0.00416,-0.0045 -0.00718,-0.0087 -0.00643,-0.0102 z" /><path
     id="path1780-8"
     style="fill:#ffffff;fill-opacity:1"
     d="m 129.50206,35.520292 c 7.9e-4,-8.34e-4 0.004,0.0012 0.008,0.0042 L 152.3348,58.16989 c 0.20726,0.205719 0.33596,0.415271 0.28573,0.465611 l -0.003,0.0027 c -0.0502,0.05015 -0.25977,-0.07854 -0.46543,-0.28577 L 129.50653,35.527644 c -0.003,-0.0031 -0.005,-0.0064 -0.005,-0.0076 z" /><path
     id="path1780-7"
     style="fill:#ffffff;fill-opacity:1"
     d="m 173.233,43.789919 c 6.6e-4,-7.11e-4 0.004,0.001 0.006,0.0036 l 19.3704,19.218207 c 0.1759,0.174577 0.28513,0.352403 0.24249,0.395142 l -0.002,0.0023 c -0.0426,0.04259 -0.22046,-0.06667 -0.39498,-0.242532 l -19.2181,-19.370485 c -0.003,-0.0026 -0.005,-0.0053 -0.004,-0.0064 z" /><path
     id="path1780-9"
     style="fill:#ffffff;fill-opacity:1"
     d="m 224.85411,6.2777881 c 9.5e-4,-0.00101 0.005,0.0015 0.009,0.0051 l 27.6871,27.4695679 c 0.25141,0.249529 0.40752,0.503736 0.34662,0.564797 l -0.003,0.0032 c -0.0609,0.06085 -0.3151,-0.09529 -0.56458,-0.346654 L 224.85945,6.2867157 c -0.004,-0.00374 -0.006,-0.00782 -0.006,-0.00918 z" /><path
     id="path1780-2"
     style="fill:#ffffff;fill-opacity:1"
     d="m 72.361592,3.5112044 c 9.07e-4,-9.61e-4 0.0049,0.00143 0.0087,0.00485 L 98.751483,29.689987 c 0.239585,0.237759 0.388302,0.479976 0.330293,0.538157 l -0.0031,0.0031 c -0.05798,0.05798 -0.300246,-0.0908 -0.537952,-0.330308 L 72.366781,3.5197013 c -0.0036,-0.00356 -0.006,-0.00744 -0.0057,-0.00873 z" /><path
     id="path1780-02"
     style="fill:#ffffff;fill-opacity:1"
     d="m 64.631335,26.496911 c 4.76e-4,-5.08e-4 0.0026,7.51e-4 0.0045,0.0026 l 13.908571,13.799295 c 0.126312,0.125367 0.204737,0.25304 0.174123,0.28373 l -0.0016,0.0016 c -0.03061,0.03061 -0.158286,-0.04789 -0.283616,-0.174161 L 64.634072,26.501389 c -0.0019,-0.0019 -0.0032,-0.0039 -0.0029,-0.0046 z" /><path
     id="path1780-3"
     style="fill:#ffffff;fill-opacity:1"
     d="m 115.77427,6.7151165 c 7.2e-4,-7.672e-4 0.004,0.00114 0.007,0.00386 L 136.77274,27.54572 c 0.19064,0.189188 0.30898,0.38192 0.26279,0.428215 l -0.002,0.0025 c -0.0462,0.04614 -0.23891,-0.07225 -0.42805,-0.262829 L 115.7784,6.7218751 c -0.003,-0.00309 -0.005,-0.00593 -0.005,-0.00695 z" /><path
     id="path1780-3-4"
     style="fill:#ffffff;fill-opacity:1"
     d="m 87.566806,36.549568 c 7.3e-4,-7.78e-4 0.0038,0.0012 0.0072,0.0039 l 21.277284,21.110118 c 0.19321,0.191773 0.31318,0.387118 0.26638,0.434041 l -0.002,0.0025 c -0.0468,0.04675 -0.24215,-0.07325 -0.43387,-0.266381 L 87.570994,36.556419 c -0.0029,-0.0031 -0.0049,-0.006 -0.0045,-0.007 z" /><path
     id="path1780-75"
     style="fill:#ffffff;fill-opacity:1"
     d="m 178.14971,7.2344868 c 6e-4,-6.392e-4 0.003,9.482e-4 0.006,0.00323 L 195.6933,24.637519 c 0.15927,0.158056 0.25814,0.319076 0.21955,0.357755 l -0.002,0.0021 c -0.0385,0.03855 -0.19959,-0.06036 -0.35762,-0.21958 L 178.15316,7.240133 c -0.002,-0.00258 -0.004,-0.00495 -0.004,-0.00582 z" /><path
     id="path1780-92"
     style="fill:#ffffff;fill-opacity:1"
     d="m 205.49386,23.450919 c 10e-4,-0.0011 0.006,0.0017 0.0102,0.0059 l 30.81519,30.573077 c 0.27984,0.27772 0.45357,0.560648 0.38579,0.628607 l -0.004,0.0036 c -0.0677,0.06773 -0.3507,-0.106054 -0.62836,-0.385822 L 205.49993,23.46103 c -0.005,-0.0043 -0.007,-0.0087 -0.006,-0.01036 z" /><path
     id="path1780-92-9"
     style="fill:#ffffff;fill-opacity:1"
     d="m 197.14115,39.220443 c 7.3e-4,-7.82e-4 0.004,0.0012 0.007,0.0042 l 21.44939,21.280862 c 0.19479,0.193323 0.3157,0.390247 0.26853,0.437552 l -0.003,0.0025 c -0.0471,0.04713 -0.24412,-0.07381 -0.43739,-0.268573 L 197.14537,39.227557 c -0.003,-0.003 -0.005,-0.006 -0.005,-0.0072 z" /><path
     id="path1780-28"
     style="fill:#ffffff;fill-opacity:1"
     d="m 20.054246,7.1069043 c 0.0011,-0.00112 0.0057,0.00167 0.0102,0.00567 L 50.87964,37.685657 c 0.279837,0.27772 0.453563,0.560647 0.385784,0.628607 l -0.0036,0.0036 c -0.06773,0.06773 -0.350702,-0.106053 -0.628365,-0.385822 L 20.060312,7.1170145 c -0.0042,-0.00454 -0.0072,-0.00869 -0.0064,-0.010205 z" /><path
     id="path1780-97"
     style="fill:#ffffff;fill-opacity:1"
     d="m 47.359872,29.273548 c 0.0011,-0.0011 0.0057,0.0017 0.0102,0.0059 l 30.815185,30.573078 c 0.279837,0.27772 0.453566,0.560648 0.385788,0.628607 l -0.0036,0.0036 c -0.06773,0.06773 -0.350703,-0.106054 -0.628369,-0.385822 L 47.365934,29.28366 c -0.0042,-0.0043 -0.0072,-0.0087 -0.0064,-0.01036 z" /></svg>
