<svg xmlns="http://www.w3.org/2000/svg" width="64" height="64"><path d="M0 0h64v64H0z" style="fill:#fff"/><rect width="58" height="58" x="3" y="3" rx="5" ry="5" style="opacity:.5;fill:none;fill-opacity:1;stroke:#000;stroke-width:2;stroke-linecap:square;stroke-miterlimit:10;stroke-dasharray:8,8;paint-order:markers stroke fill;stroke-dashoffset:0"/><path d="M32 19a13 13 0 1 0 13 13 13.014 13.014 0 0 0-13-13m0 24a11 11 0 1 1 11-11 11.013 11.013 0 0 1-11 11m8-11a1 1 0 0 1-1 1h-7a1 1 0 0 1-1-1v-7a1 1 0 0 1 2 0v6h6a1 1 0 0 1 1 1" style="stroke-width:1;fill:#000;opacity:.5"/></svg>