<svg xmlns="http://www.w3.org/2000/svg" xmlns:xlink="http://www.w3.org/1999/xlink" width="64" height="64"><defs><linearGradient id="j"><stop offset="0" style="stop-color:#000;stop-opacity:.25999999"/><stop offset="1" style="stop-color:#000;stop-opacity:.2"/></linearGradient><linearGradient xlink:href="#a" id="x" x1="18.776" x2="18.203" y1="4.038" y2="45.962" gradientTransform="matrix(.58088 0 0 -.58088 17.857 46.522)" gradientUnits="userSpaceOnUse"/><linearGradient id="a"><stop offset="0" style="stop-color:#fff;stop-opacity:1"/><stop offset="1" style="stop-color:#fff;stop-opacity:0"/></linearGradient><linearGradient xlink:href="#b" id="w" x1="71.204" x2="71.204" y1="6.238" y2="44.341" gradientTransform="translate(-70.753 -4.323)scale(1.43243)" gradientUnits="userSpaceOnUse"/><linearGradient id="b"><stop offset="0" style="stop-color:#fff;stop-opacity:1"/><stop offset=".508" style="stop-color:#fff;stop-opacity:.23529412"/><stop offset=".835" style="stop-color:#fff;stop-opacity:.15686275"/><stop offset="1" style="stop-color:#fff;stop-opacity:.39215687"/></linearGradient><linearGradient xlink:href="#c" id="r" x1="20.58" x2="24.274" y1="10.775" y2="9.862" gradientUnits="userSpaceOnUse" spreadMethod="reflect"/><linearGradient id="c"><stop offset="0" style="stop-color:#e6cde2;stop-opacity:1"/><stop offset="1" style="stop-color:#e6cde2;stop-opacity:0"/></linearGradient><linearGradient xlink:href="#d" id="s" x1="17.495" x2="21.047" y1="11.2" y2="9.796" gradientUnits="userSpaceOnUse" spreadMethod="reflect"/><linearGradient id="d"><stop offset="0" style="stop-color:#c1cbe4;stop-opacity:1"/><stop offset="1" style="stop-color:#c1cbe4;stop-opacity:0"/></linearGradient><linearGradient xlink:href="#e" id="t" x1="14.085" x2="16.994" y1="13.046" y2="10.732" gradientUnits="userSpaceOnUse" spreadMethod="reflect"/><linearGradient id="e"><stop offset="0" style="stop-color:#c4ebdd;stop-opacity:1"/><stop offset="1" style="stop-color:#c4ebdd;stop-opacity:0"/></linearGradient><linearGradient xlink:href="#f" id="u" x1="12.372" x2="14.609" y1="16.188" y2="13.462" gradientUnits="userSpaceOnUse" spreadMethod="reflect"/><linearGradient id="f"><stop offset="0" style="stop-color:#ebeec7;stop-opacity:1"/><stop offset="1" style="stop-color:#ebeec7;stop-opacity:0"/></linearGradient><linearGradient xlink:href="#g" id="v" x1="10.609" x2="9.73" y1="17.886" y2="20.613" gradientUnits="userSpaceOnUse" spreadMethod="reflect"/><linearGradient id="g"><stop offset="0" style="stop-color:#fcd9cd;stop-opacity:1"/><stop offset="1" style="stop-color:#fcd9cd;stop-opacity:0"/></linearGradient><linearGradient xlink:href="#c" id="m" x1="20.58" x2="24.274" y1="10.775" y2="9.862" gradientUnits="userSpaceOnUse" spreadMethod="reflect"/><linearGradient xlink:href="#d" id="n" x1="17.495" x2="21.047" y1="11.2" y2="9.796" gradientUnits="userSpaceOnUse" spreadMethod="reflect"/><linearGradient xlink:href="#e" id="o" x1="14.085" x2="16.994" y1="13.046" y2="10.732" gradientUnits="userSpaceOnUse" spreadMethod="reflect"/><linearGradient xlink:href="#f" id="p" x1="12.372" x2="14.609" y1="16.188" y2="13.462" gradientUnits="userSpaceOnUse" spreadMethod="reflect"/><linearGradient xlink:href="#g" id="q" x1="10.609" x2="9.73" y1="17.886" y2="20.613" gradientUnits="userSpaceOnUse" spreadMethod="reflect"/><linearGradient xlink:href="#h" id="l" x1="12.274" x2="35.391" y1="32.416" y2="14.203" gradientTransform="rotate(90 37.007 31.293)scale(1.57144)" gradientUnits="userSpaceOnUse"/><linearGradient id="h" x1="12.274" x2="35.391" y1="32.416" y2="14.203" gradientUnits="userSpaceOnUse"><stop offset="0" style="stop-color:#dedcde;stop-opacity:1"/><stop offset=".5" style="stop-color:#f0f0f0;stop-opacity:1"/><stop offset="1" style="stop-color:#d2d2d2;stop-opacity:1"/></linearGradient><linearGradient xlink:href="#i" id="A" x1="74.13" x2="74.13" y1="-56" y2="56" gradientTransform="translate(.288 32)scale(.4955)" gradientUnits="userSpaceOnUse"/><linearGradient id="i"><stop offset="0" style="stop-color:#000;stop-opacity:.25999999"/><stop offset="1" style="stop-color:#000;stop-opacity:.30000001"/></linearGradient><linearGradient xlink:href="#j" id="y" x1="16.129" x2="16.129" y1="45.258" y2="4.742" gradientTransform="matrix(.53037 0 0 -.53037 19.087 45.26)" gradientUnits="userSpaceOnUse"/><linearGradient id="k"><stop offset="0" style="stop-color:#000;stop-opacity:.30000001"/><stop offset="1" style="stop-color:#000;stop-opacity:.25999999"/></linearGradient><linearGradient xlink:href="#k" id="z" x1="62.497" x2="62.497" y1="-10" y2="10" gradientTransform="translate(-3.368 32)scale(.55263)" gradientUnits="userSpaceOnUse"/></defs><path d="M32 4.5A27.43 27.43 0 0 0 4.5 32 27.43 27.43 0 0 0 32 59.5 27.43 27.43 0 0 0 59.5 32 27.43 27.43 0 0 0 32 4.5M32 22a10 10 0 0 1 10 10 10 10 0 0 1-10 10 10 10 0 0 1-10-10 10 10 0 0 1 10-10" style="fill:url(#l);fill-opacity:1;fill-rule:nonzero;stroke:none;stroke-width:1;stroke-miterlimit:4;stroke-opacity:1"/><path d="m15.857 5.73 4.768 10.614A8.3 8.3 0 0 1 24 15.625h.094l.014-11.62c-2.942-.07-5.543.657-8.251 1.726" style="opacity:.8;fill:url(#m);fill-opacity:1;fill-rule:nonzero;stroke:none" transform="rotate(1.616 30.052 32.255)scale(1.33333)"/><path d="m12.121 7.906 6.931 9.36a8.3 8.3 0 0 1 3.143-1.425l.092-.02-2.43-11.395c-2.889.562-5.32 1.856-7.736 3.48" style="opacity:.8;fill:url(#n);fill-opacity:1;fill-rule:nonzero;stroke:none" transform="translate(0 .059)scale(1.33333)"/><path d="m8.252 11.647 9.214 7.155a8.3 8.3 0 0 1 2.667-2.19l.083-.043-5.35-10.318c-2.645 1.29-4.7 3.201-6.614 5.396" style="opacity:.8;fill:url(#o);fill-opacity:1;fill-rule:nonzero;stroke:none" transform="translate(0 .059)scale(1.33333)"/><path d="M5.633 16.074c7.175 2.242 7.85 7.031 12.777 1.754L10.5 9.132c-2.221 1.93-3.587 4.327-4.867 6.942" style="opacity:.8;fill:url(#p);fill-opacity:1;fill-rule:nonzero;stroke:none" transform="translate(0 .059)scale(1.33333)"/><path d="M7.155 13.193c-1.183 1.752-1.907 3.637-2.525 5.644l11.339 2.976a8.2 8.2 0 0 1 .969-2.22L17 19.5z" style="opacity:.8;fill:url(#q);fill-opacity:1;fill-rule:nonzero;stroke:none" transform="translate(0 .059)scale(1.33333)"/><path d="m15.857 5.73 4.768 10.614A8.3 8.3 0 0 1 24 15.625h.094l.014-11.62c-2.942-.07-5.543.657-8.251 1.726" style="opacity:.8;fill:url(#r);fill-opacity:1;fill-rule:nonzero;stroke:none" transform="rotate(-178.384 31.997 32.025)scale(1.33333)"/><path d="m12.121 7.906 6.931 9.36a8.3 8.3 0 0 1 3.143-1.425l.092-.02-2.43-11.395c-2.889.562-5.32 1.856-7.736 3.48" style="opacity:.8;fill:url(#s);fill-opacity:1;fill-rule:nonzero;stroke:none" transform="rotate(180 32 32.023)scale(1.33333)"/><path d="m8.252 11.647 9.214 7.155a8.3 8.3 0 0 1 2.667-2.19l.083-.043-5.35-10.318c-2.645 1.29-4.7 3.201-6.614 5.396" style="opacity:.8;fill:url(#t);fill-opacity:1;fill-rule:nonzero;stroke:none" transform="rotate(180 32 32.023)scale(1.33333)"/><path d="M5.633 16.074c7.175 2.242 7.85 7.031 12.777 1.754L10.5 9.132c-2.221 1.93-3.587 4.327-4.867 6.942" style="opacity:.8;fill:url(#u);fill-opacity:1;fill-rule:nonzero;stroke:none" transform="rotate(180 32 32.023)scale(1.33333)"/><path d="M7.155 13.193c-1.183 1.752-1.907 3.637-2.525 5.644l11.339 2.976a8.2 8.2 0 0 1 .969-2.22L17 19.5z" style="opacity:.8;fill:url(#v);fill-opacity:1;fill-rule:nonzero;stroke:none" transform="rotate(180 32 32.023)scale(1.33333)"/><path d="M58.5 32c0 14.635-11.865 26.5-26.5 26.5S5.5 46.635 5.5 32 17.365 5.5 32 5.5 58.5 17.364 58.5 32" style="opacity:.55;color:#000;fill:none;stroke:url(#w);stroke-width:1.00000012;stroke-linecap:round;stroke-linejoin:round;stroke-miterlimit:4;stroke-opacity:1;stroke-dasharray:none;stroke-dashoffset:0;marker:none;visibility:visible;display:inline;overflow:visible"/><path d="M32 43.5A11.47 11.47 0 0 1 20.5 32 11.47 11.47 0 0 1 32 20.5 11.47 11.47 0 0 1 43.5 32 11.47 11.47 0 0 1 32 43.5z" style="opacity:.4;fill:none;stroke:url(#x);stroke-width:.99999982;stroke-miterlimit:4;stroke-opacity:1"/><path d="M32 22c-5.52 0-10 4.48-10 10s4.48 10 10 10 10-4.48 10-10-4.48-10-10-10m0 4a6 6 0 0 1 6 6 6 6 0 0 1-6 6 6 6 0 0 1-6-6 6 6 0 0 1 6-6" style="display:inline;overflow:visible;visibility:visible;fill:#fff;fill-opacity:.498039;stroke:none;stroke-width:1;stroke-linecap:butt;stroke-linejoin:round;stroke-miterlimit:4;stroke-dasharray:none;stroke-dashoffset:0;stroke-opacity:1;marker:none"/><path d="M32 42.5c-5.82 0-10.5-4.68-10.5-10.5S26.18 21.5 32 21.5 42.5 26.18 42.5 32 37.82 42.5 32 42.5z" style="fill:none;stroke:url(#y);stroke-width:1;stroke-miterlimit:4;stroke-opacity:1"/><circle cx="32" cy="32" r="6.25" style="fill:none;fill-rule:evenodd;stroke:#fff;stroke-width:1;stroke-linecap:round;stroke-opacity:.5;stop-color:#000"/><circle cx="32" cy="32" r="5.25" style="fill:none;fill-rule:evenodd;stroke:url(#z);stroke-width:1;stroke-linecap:round;stroke-opacity:1;stop-color:#000"/><circle cx="32" cy="32" r="27.5" style="fill:none;fill-opacity:1;fill-rule:evenodd;stroke:url(#A);stroke-width:.999999;stroke-linecap:round;stroke-opacity:1;stop-color:#000"/></svg>