<svg xmlns="http://www.w3.org/2000/svg" xml:space="preserve" width="64" height="64" viewBox="0 0 64 64"><path d="M0 0v64h64V0Zm2 2h60v60H2Zm4 4v39h19.666L24 50l-8 4v4h32v-4l-8-4-1.666-5H58V6Zm2 2h48v35H8Zm2 2v6h2v-2.586l7.543 7.543 1.19-1.639L13.413 12H16v-2h-1zm31.09 7.586q-2.432 0-3.861 1.13-1.41 1.11-1.643 2.987l2.838.149a2.06 2.06 0 0 1 .767-1.344q.64-.512 1.899-.512 1.28 0 1.879.533.617.534.617 1.516 0 1.088-.746 1.557-.725.447-1.813.447h-1.324v2.197h1.324q1.387 0 2.22.598.831.597.831 1.834 0 .811-.406 1.324-.405.512-1.088.768a4.6 4.6 0 0 1-1.516.234q-1.237 0-2.025-.555-.768-.555-.897-1.771l-2.837.129q.106 2.113 1.58 3.37 1.47 1.238 4.18 1.237 1.77 0 3.093-.533 1.323-.555 2.049-1.578.725-1.024.725-2.475 0-1.62-1.045-2.666-.8-.816-2.077-1.158 1.075-.333 1.735-.977.896-.875.896-2.24 0-1.3-.64-2.238-.618-.94-1.813-1.451t-2.902-.512m-16.88.34-7.146 9.857v2.262h7.594v3.03h2.774v-3.03h1.814v-2.412h-1.814v-9.707zm.448 3.605v6.102h-4.564zm5.848.684V25.2h3.115v-2.986zm0 7.87v2.99h3.115v-2.99zm16.902 2.91a6.6 6.6 0 0 1-1.556 1.27L50.586 39H48v2h6v-6h-2v2.586z"/></svg>