<svg xmlns="http://www.w3.org/2000/svg" xml:space="preserve" width="153" height="26" viewBox="0 0 153 26"><path d="M0 0v26h4V0Zm6 0v18h1V0Zm2 0v18h2V0Zm3 0v18h4V0Zm5 0v18h4V0Zm5 0v18h2V0Zm4 0v18h1V0Zm2 0v18h2V0Zm3 0v18h1V0Zm3 0v18h4V0Zm5 0v18h2V0Zm6 0v18h2V0Zm3 0v18h1V0Zm2 0v18h4V0Zm5 0v18h2V0Zm4 0v18h1V0Zm2 0v18h4V0Zm6 0v18h1V0Zm2 0v18h2V0Zm6 0v18h2V0Zm3 0v18h2V0Zm3 0v18h1V0Zm2 0v18h2V0Zm4 0v18h2V0Zm5 0v18h1V0Zm2 0v18h3V0Zm7 0v18h1V0Zm2 0v18h1V0Zm3 0v18h4V0Zm5 0v18h1V0Zm2 0v18h2V0Zm3 0v18h1V0Zm3 0v18h2V0Zm3 0v18h4V0Zm5 0v18h1V0Zm2 0v18h3V0Zm5 0v18h3V0Zm5 0v18h3V0Zm6 0v18h1V0Zm2 0v18h1V0Zm3 0v26h4V0ZM69.709 19v.912h1.064V19Zm-60.637.072v2.016a1.2 1.2 0 0 0-.52-.52 1.6 1.6 0 0 0-.784-.183q-.537 0-.936.271-.4.273-.615.776Q6 21.936 6 22.615q0 .681.217 1.186.216.504.607.775.4.272.944.272.448 0 .8-.192a1.25 1.25 0 0 0 .528-.537l.023.633h.977v-5.68zm47.516 0v2.016a1.2 1.2 0 0 0-.52-.52 1.6 1.6 0 0 0-.783-.183q-.536 0-.935.271-.401.273-.618.776-.215.504-.214 1.183-.001.681.214 1.186.216.504.608.775.4.273.945.272.447 0 .799-.192.353-.193.53-.537l.023.633h.976v-5.68Zm-32.596 1.313q-.792 0-1.289.367-.495.36-.623 1.041l1.04.047a.88.88 0 0 1 .288-.488q.216-.176.584-.176.408 0 .615.232.21.224.21.68l-1.417.28q-.705.136-1.048.448t-.344.864.408.865q.408.304 1.08.303.4 0 .72-.12.321-.12.528-.335.134-.14.21-.301.027.186.095.316.111.207.318.295.209.08.473.08.112 0 .217-.008a.7.7 0 0 0 .16-.023v-.744h-.137q-.119 0-.184-.065-.056-.062-.056-.23V22.16q0-.855-.473-1.312-.464-.464-1.375-.463m89.365 0a2.17 2.17 0 0 0-1.113.28q-.471.27-.734.774-.257.497-.258 1.176 0 .673.258 1.178.264.504.734.783.48.273 1.113.272.633 0 1.104-.272a1.9 1.9 0 0 0 .728-.783q.264-.505.264-1.178 0-.68-.264-1.176a1.83 1.83 0 0 0-.728-.775q-.472-.28-1.104-.28m16.24 0q-.344-.001-.632.127t-.488.4a1.3 1.3 0 0 0-.16.299l-.024-.73h-.928v4.271h1.024v-2.416q0-.544.24-.832a.82.82 0 0 1 .656-.287q.272 0 .432.135a.7.7 0 0 1 .24.377q.072.247.072.607v2.416h1.024v-2.744q0-.48-.168-.84a1.3 1.3 0 0 0-.496-.576q-.32-.208-.791-.207m15.417 0q-.624-.001-1.096.28-.464.279-.719.782-.255.495-.256 1.168 0 .673.256 1.178.255.504.727.783.472.273 1.113.272.736 0 1.248-.36a1.73 1.73 0 0 0 .695-.984l-1.048-.065a.8.8 0 0 1-.319.442q-.225.15-.568.15-.457 0-.736-.279-.273-.287-.305-.848h3.033v-.232q0-.72-.248-1.233a1.8 1.8 0 0 0-.713-.783 2.04 2.04 0 0 0-1.064-.271m-107.065.095v2.752q0 .76.375 1.192.385.424 1.033.424.592 0 .952-.313.216-.188.337-.482l.014.699h.938V20.48h-1.026v2.456q0 .528-.232.808-.223.272-.639.272-.368 0-.553-.248-.175-.256-.175-.791V20.48Zm31.776 0v4.272h1.023V20.48Zm12.736 0 1.48 2.096-1.537 2.176h1.137l1.023-1.535 1.016 1.535h1.113l-1.529-2.168 1.473-2.104H85.51l-.961 1.456-.977-1.456zm62.553.711q.408 0 .672.256.264.25.296.77h-1.976q.064-.496.328-.762a.94.94 0 0 1 .68-.264M8.08 21.217q.32 0 .535.16.225.16.336.47.12.313.121.768 0 .449-.12.77a.95.95 0 0 1-.337.47.87.87 0 0 1-.535.16.88.88 0 0 1-.744-.374q-.272-.386-.272-1.026 0-.655.272-1.023a.88.88 0 0 1 .744-.375m47.518 0q.319 0 .535.16.224.16.336.47.12.313.119.768 0 .449-.12.77a.95.95 0 0 1-.335.47.87.87 0 0 1-.535.16.88.88 0 0 1-.744-.374q-.274-.386-.274-1.026 0-.655.274-1.023a.88.88 0 0 1 .744-.375m57.76 0q.495 0 .76.375.27.367.27 1.023 0 .665-.27 1.033-.265.369-.76.368-.498 0-.77-.368t-.272-1.033q0-.655.272-1.023.272-.375.77-.375m-88.542 1.566v.24q0 .33-.136.569a.96.96 0 0 1-.383.377 1.2 1.2 0 0 1-.594.135q-.304 0-.47-.135a.48.48 0 0 1-.16-.385q0-.224.144-.36.152-.143.496-.216zm73.516.85v1.119H99.5v-1.12z"/></svg>