<svg xmlns="http://www.w3.org/2000/svg" class="border" viewBox="0 0 153 26"><path d="M1.279 1.441h1.69v13.775h-1.69z"/><path d="M3.815 1.441h.845v13.775h-.845z"/><path d="M6.35 1.441h.845v13.775H6.35z"/><path d="M10.576 1.441h.845v13.775h-.845z"/><path d="M13.112 1.441h3.381v13.775h-3.381z"/><path d="M17.338 1.441h.845v13.775h-.845z"/><path d="M19.873 1.441h.845v13.775h-.845z"/><path d="M22.409 1.441h.845v13.775h-.845z"/><path d="M24.944 1.441h3.381v13.775h-3.381z"/><path d="M29.17 1.441h.845v13.775h-.845z"/><path d="M33.396 1.441h1.69v13.775h-1.69z"/><path d="M35.932 1.441h.845v13.775h-.845z"/><path d="M38.467 1.441h3.381v13.775h-3.381z"/><path d="M43.538 1.441h.845v13.775h-.845z"/><path d="M46.074 1.441h.845v13.775h-.845z"/><path d="M47.764 1.441h.845v13.775h-.845z"/><path d="M50.3 1.441h1.69v13.775H50.3z"/><path d="M53.68 1.441h2.536v13.775H53.68z"/><path d="M57.061 1.441h.845v13.775h-.845z"/><path d="M61.287 1.441h1.69v13.775h-1.69z"/><path d="M63.822 1.441h.845v13.775h-.845z"/><path d="M66.358 1.441h.845v13.775h-.845z"/><path d="M68.048 1.441h3.381v13.775h-3.381z"/><path d="M73.119 1.441h.845v13.775h-.845z"/><path d="M75.655 1.441h.845v13.775h-.845z"/><path d="M78.19 1.441h1.69v13.775h-1.69z"/><path d="M80.726 1.441h2.536v13.775h-2.536z"/><path d="M84.952 1.441h.845v13.775h-.845z"/><path d="M87.487 1.441h.845v13.775h-.845z"/><path d="M89.178 1.441h1.69v13.775h-1.69z"/><path d="M94.249 1.441h.845v13.775h-.845z"/><path d="M96.784 1.441h1.69v13.775h-1.69z"/><path d="M100.165 1.441h2.536v13.775h-2.536z"/><path d="M103.546 1.441h.845v13.775h-.845z"/><path d="M107.772 1.441h.845v13.775h-.845z"/><path d="M110.307 1.441h1.69v13.775h-1.69z"/><path d="M112.843 1.441h.845v13.775h-.845z"/><path d="M114.533 1.441h1.69v13.775h-1.69z"/><path d="M117.914 1.441h.845v13.775h-.845z"/><path d="M122.139 1.441h3.381v13.775h-3.381z"/><path d="M126.365 1.441h.845v13.775h-.845z"/><path d="M128.901 1.441h.845v13.775h-.845z"/><path d="M131.436 1.441h1.69v13.775h-1.69z"/><path d="M134.817 1.441h.845v13.775h-.845z"/><path d="M136.507 1.441h.845v13.775h-.845z"/><path d="M140.733 1.441h1.69v13.775h-1.69z"/><path d="M144.959 1.441h2.536v13.775h-2.536z"/><path d="M148.34 1.441h.845v13.775h-.845z"/><path d="M150.03 1.441h1.69v13.775h-1.69z"/><text x="192.929" y="55.682" font-family="Verdana" font-size="20" text-anchor="middle" transform="matrix(.42259 0 0 .16922 -5.03 14.134)">trix.is-a.dev</text><path fill="none" stroke="#000" stroke-linecap="undefined" stroke-linejoin="undefined" stroke-width="14" d="M386.875 126.25v-141"/><path fill="none" stroke="#000" stroke-linecap="undefined" stroke-linejoin="undefined" stroke-width="8" d="M4.875 105.25h402"/><path fill="none" stroke="#000" stroke-linecap="undefined" stroke-linejoin="undefined" d="m910.875 136.25-212 112"/><path fill="none" stroke="#000" stroke-linecap="undefined" stroke-linejoin="undefined" stroke-width="2" d="m-1.084-.051 154.072.134"/><path fill="none" stroke="#000" stroke-linecap="undefined" stroke-linejoin="undefined" stroke-width="2" d="m153.003-56.375-.134 154.072"/><path fill="none" stroke="#000" stroke-linecap="undefined" stroke-linejoin="undefined" stroke-width="2" d="M-.001-57.443-.135 96.629"/><path fill="none" stroke="#000" stroke-linecap="undefined" stroke-linejoin="undefined" stroke-width="2" d="m-1.084 25.183 154.072.133"/></svg>