<svg xmlns="http://www.w3.org/2000/svg" xml:space="preserve" width="64" height="64" viewBox="0 0 64 64"><path d="M0 0v64h64V0Zm2 2h60v60H2Zm23.492 10.629v1.848q-1.372.07-2.388.543-1.196.532-1.836 1.535-.64.981-.64 2.283 0 1.215.491 2.025.49.79 1.6 1.325 1.07.504 2.773.933v4.4a3.4 3.4 0 0 1-.705-.236 2.86 2.86 0 0 1-1.15-1.023q-.428-.661-.555-1.621l-2.752.148q.127 1.557.873 2.73.768 1.153 2.113 1.815.963.458 2.176.588v1.693h1.664v-1.664q1.274-.086 2.262-.512 1.26-.554 1.941-1.535.704-1.002.703-2.347 0-1.11-.511-1.963-.49-.874-1.664-1.492-1.032-.574-2.73-.993v-4.14q.2.068.382.162.66.34 1.047.959.384.619.469 1.43l2.752-.149q-.15-1.43-.875-2.539a4.77 4.77 0 0 0-1.942-1.728 5.7 5.7 0 0 0-1.834-.561v-1.914zm-13.613 1.92-.627 3.84h-1.72l-.32 2.197h1.68l-.523 3.201H8.721l-.319 2.176h1.612l-.61 3.732h2.453l.616-3.732h2.345l-.615 3.732h2.455l.62-3.732h1.747l.32-2.176H17.64l.533-3.201h1.664l.32-2.197h-1.62l.638-3.84H16.7l-.633 3.84h-2.345l.633-3.84zm21.572 0v4.672q.001.854.086 1.941.085 1.068.191 2.092.108 1.023.194 1.748h1.855q.085-.725.192-1.748.106-1.024.172-2.092.084-1.088.084-1.941v-4.672zm13.7 0q-2.198 0-4.01.726a9 9 0 0 0-3.116 2.026 8.8 8.8 0 0 0-2.027 3.115q-.704 1.813-.703 4.01 0 2.453.959 4.203.981 1.729 2.816 2.646 1.856.917 4.46.916 1.343 0 2.581-.234a11.7 11.7 0 0 0 2.432-.746l-.45-1.643q-1.065.448-2.175.66-1.088.215-2.324.215-2.05 0-3.5-.726a5 5 0 0 1-2.198-2.069q-.746-1.386-.746-3.328 0-1.813.577-3.285a7.24 7.24 0 0 1 4.117-4.16q1.471-.576 3.242-.576 2.176 0 3.648.681 1.494.684 2.24 2.028t.747 3.306q0 1.878-.598 2.924-.576 1.024-1.621 1.024-.469 0-.746-.235-.256-.256-.256-.683 0-.385.043-.918a15 15 0 0 0 .086-1.045l.383-4.309h-2.133l-.102 1.125a2.4 2.4 0 0 0-.73-.677q-.811-.534-2.006-.534-1.322 0-2.324.684-1.004.66-1.559 1.834t-.554 2.644q0 1.196.449 2.092.469.897 1.322 1.387.874.47 2.111.469.768 0 1.494-.32a4.4 4.4 0 0 0 1.301-.895q.263-.263.45-.553.18.613.638 1.043.704.62 1.877.62 1.28-.001 2.262-.727.982-.725 1.537-2.026.554-1.322.553-3.115 0-2.305-1.067-3.99-1.045-1.707-2.943-2.645-1.899-.939-4.438-.94M25.491 16.81v3.884a10 10 0 0 1-.789-.258q-.726-.299-1.025-.683-.278-.405-.278-1.002 0-.875.663-1.408.548-.447 1.43-.533M13.36 20.586h2.346l-.527 3.201h-2.346zm33.131.256q.704 0 1.15.299.45.298.663.832.213.512.213 1.195 0 .79-.278 1.494t-.853 1.15q-.555.428-1.408.428-1.045 0-1.514-.64-.448-.64-.447-1.643-.002-.874.297-1.557.298-.704.832-1.13.556-.428 1.345-.428M27.156 23.56q.477.153.81.31.79.364 1.067.813.278.426.278 1.023 0 .618-.342 1.045-.32.427-.938.662a4 4 0 0 1-.875.184zm6.06 3.148v2.986h3.116V26.71zm-3.032 8.832q-2.24 0-3.862.961-1.62.96-2.496 2.752-.853 1.77-.853 4.223t.853 4.224q.874 1.77 2.496 2.73 1.621.94 3.862.94 2.282 0 3.882-.94 1.621-.96 2.475-2.73.875-1.77.875-4.224 0-2.453-.875-4.223-.853-1.792-2.475-2.752-1.599-.96-3.882-.961m-16.942.342v15.146h9.963v-2.41h-7.19V35.883Zm25.524 0v15.146h9.963v-2.41h-7.19V35.883Zm10.713 0v4.672q0 .854.084 1.941.085 1.066.193 2.09.106 1.024.191 1.75h1.856q.086-.726.193-1.75.106-1.024.17-2.09.086-1.088.086-1.941v-4.672zM30.184 37.95q1.386 0 2.345.662.982.662 1.494 1.899.534 1.237.534 2.965t-.534 2.966q-.511 1.216-1.494 1.877-.96.64-2.345.64-1.344 0-2.327-.64-.98-.66-1.513-1.877-.513-1.238-.512-2.966 0-1.728.512-2.965.533-1.237 1.513-1.899.982-.661 2.327-.662m19.06 10.092v2.986h3.113v-2.986z"/></svg>