<svg xmlns="http://www.w3.org/2000/svg" xml:space="preserve" width="136" height="64" viewBox="0 0 136 64"><path d="M0 0v64h136V0Zm2 2h132v60H2Zm28.893 8.94L8 51h45.783zm82.367 2.091q-1.665.001-2.848.785-1.184.768-1.824 2.112-.623 1.344-.623 3.056 0 1.744.607 3.073a5 5 0 0 0 1.793 2.095q1.168.753 2.783.752.93 0 1.713-.32a3.7 3.7 0 0 0 1.328-.912q.314-.34.504-.736l.088 1.712h1.344v-5.855h-4.832v1.615h2.799a3 3 0 0 1-.383 1.375 2.6 2.6 0 0 1-.96.961q-.608.352-1.456.352-1.088 0-1.809-.528-.703-.544-1.039-1.472t-.336-2.112q0-1.152.336-2.08.351-.943 1.04-1.504.704-.56 1.792-.56 1.233 0 1.84.607.624.593.799 1.602l2.176-.113a5.7 5.7 0 0 0-.832-2.032 4.06 4.06 0 0 0-1.584-1.377q-.976-.495-2.416-.496M50 13.287l3.04 11.361h2.32l1.984-7.777 1.984 7.777h2.305l3.039-11.36h-2.207l-2.065 8.48-2.095-8.48h-1.938l-2.096 8.48-2.08-8.48zm16.879 0-4.096 11.361h2.176l.943-2.687h4.496l.944 2.687h2.176l-4.096-11.36Zm6.84 0v11.361h2.08V20.36h2.719q.897 0 1.28.32.385.321.432.993l.24 2.976h2.112l-.287-3.28q-.08-1.025-.69-1.52-.412-.345-1.072-.45.375-.116.705-.334.576-.367.912-.976.336-.608.336-1.393 0-1.039-.496-1.806a3.24 3.24 0 0 0-1.392-1.186q-.896-.416-2.127-.416zm10.023 0v11.361h2.08v-8.304l4.832 8.304h2.496v-11.36h-2.08v8.544l-4.896-8.545zm10.713 0v11.361h2.08v-11.36Zm3.383 0v11.361h2.08v-8.304l4.832 8.304h2.496v-11.36h-2.08v8.544l-4.896-8.545zm-66.945 1.684L50.338 49h-38.89Zm44.906.125h2.447q1.024 0 1.553.449.543.448.543 1.28 0 .814-.528 1.263t-1.472.447h-2.543zm-7.64.289 1.632 4.799H66.51zm51.013 1.119v2.24h2.336v-2.24zm0 5.904v2.24h2.336v-2.24ZM29 23l1 16h2l1-16zm34.8 6.031q-.799 0-1.39.37a2.4 2.4 0 0 0-.92 1.03q-.328.665-.328 1.577 0 .927.336 1.592.336.655.928 1.015.591.353 1.367.354.713 0 1.232-.256.528-.264.848-.744a3 3 0 0 0 .432-1.153l-1.088-.056q-.096.608-.447.96-.345.344-.977.344-.464 0-.814-.248a1.65 1.65 0 0 1-.553-.705q-.192-.464-.192-1.103 0-.633.192-1.096.191-.465.543-.72.352-.256.832-.256.592 0 .937.32.344.32.448.88l1.087-.056q-.183-.967-.783-1.504-.6-.544-1.69-.545m5.858 0q-.84.001-1.449.362-.608.36-.936 1.03-.32.664-.32 1.585t.32 1.584q.328.663.936 1.023.609.353 1.45.354.854-.001 1.454-.354.609-.36.928-1.023.328-.664.328-1.584 0-.921-.328-1.584a2.33 2.33 0 0 0-.928-1.031q-.6-.361-1.455-.362m28.674 0q-.64 0-1.096.217a1.6 1.6 0 0 0-.703.592 1.55 1.55 0 0 0-.248.873q0 .464.192.775.192.304.617.512.422.2 1.127.36.584.136.88.28.296.136.399.311.105.168.105.385 0 .24-.128.408-.12.16-.36.248-.231.08-.568.08-.392 0-.672-.129a1.1 1.1 0 0 1-.44-.39 1.55 1.55 0 0 1-.208-.625l-1.057.064q.049.591.338 1.04.295.44.806.689.513.248 1.217.248.648 0 1.127-.201.48-.21.744-.584.264-.384.264-.905a1.46 1.46 0 0 0-.191-.752q-.192-.327-.641-.576-.448-.247-1.207-.406a7 7 0 0 1-.783-.225q-.28-.111-.393-.263a.67.67 0 0 1-.103-.385q0-.336.255-.535.264-.21.711-.21.36.001.61.137.255.128.398.36.153.232.194.545l1.046-.05a2.3 2.3 0 0 0-.335-.976 1.9 1.9 0 0 0-.745-.664q-.472-.248-1.152-.248m15.461 0q-.833 0-1.426.393a2.5 2.5 0 0 0-.912 1.056q-.311.672-.31 1.528 0 .872.302 1.537.312.663.897 1.047.585.376 1.392.377.464 0 .856-.16.4-.169.664-.457.156-.17.252-.37l.045.858h.672v-2.928h-2.416v.809h1.398q-.015.376-.191.687a1.3 1.3 0 0 1-.48.48 1.4 1.4 0 0 1-.727.176q-.545 0-.905-.263a1.6 1.6 0 0 1-.52-.737 3.1 3.1 0 0 1-.167-1.056q0-.575.168-1.04.175-.472.52-.751.351-.28.896-.281.615 0 .92.304.311.296.398.8l1.088-.056a2.8 2.8 0 0 0-.414-1.015 2.03 2.03 0 0 0-.793-.69q-.487-.248-1.207-.248m-40.564.13v5.679h1.04v-4.153l2.417 4.153h1.248v-5.68h-1.041v4.272l-2.448-4.272zm5.175 0v.903h1.729v4.776h1.039v-4.776h1.72v-.904zm6.014 0-2.049 5.679h1.088l.473-1.344h2.248l.472 1.344h1.088l-2.049-5.68zm3.92 0v5.679h1.039v-5.68zm2.191 0v5.679h1.041v-4.153l2.416 4.153h1.248v-5.68h-1.04v4.272l-2.448-4.272zm13.092 0v5.679h1.04v-2.408h2.392v2.408h1.04v-5.68h-1.04v2.367h-2.393V29.16zm5.623 0v5.679h1.041v-5.68zm8.004 0v5.679h1.04v-2.408h2.392v2.408h1.04v-5.68h-1.04v2.367h-2.393V29.16zm-47.59.775q.52 0 .88.248.367.248.56.712.2.465.199 1.112 0 .648-.2 1.111a1.55 1.55 0 0 1-.56.705q-.36.24-.879.24-.505 0-.873-.24a1.6 1.6 0 0 1-.568-.705q-.192-.465-.192-1.111 0-.648.192-1.112.2-.464.568-.712t.873-.248m15.4.271.815 2.4h-1.639zm5.467 6.824q-.84.001-1.449.362-.608.36-.935 1.03-.32.664-.32 1.585t.32 1.584q.327.663.935 1.023.61.353 1.45.354.855-.001 1.454-.354.609-.36.928-1.023.328-.664.328-1.584 0-.921-.328-1.584a2.33 2.33 0 0 0-.928-1.031q-.6-.361-1.455-.362m24.104 0q-.84.001-1.447.362a2.4 2.4 0 0 0-.938 1.03q-.32.664-.32 1.585t.32 1.584q.329.663.938 1.023.607.353 1.447.354.855-.001 1.455-.354.608-.36.93-1.023.327-.664.326-1.584 0-.921-.326-1.584a2.33 2.33 0 0 0-.93-1.031q-.6-.361-1.455-.362m-20.527.121v3.657q0 .664.271 1.152.28.479.791.742.52.265 1.209.266.704-.001 1.207-.266.512-.263.793-.742.28-.488.28-1.152v-3.657h-1.04v3.657q0 .6-.328.927-.32.328-.912.328t-.912-.328q-.32-.327-.32-.927v-3.657zm-16.997.008-2.048 5.68h1.09l.47-1.344h2.248l.473 1.344h1.088l-2.049-5.68zm3.92 0v5.68h1.041v-3.92l1.432 3.912h.992l1.432-3.912v3.92h1.039v-5.68h-1.398l-1.569 4.4-1.568-4.4zm18.909 0v5.68h1.039v-4.153l2.416 4.153h1.248v-5.68h-1.04v4.272l-2.449-4.272zm5.175 0v.904h1.727v4.776h1.041v-4.776h1.72v-.904zm13.09 0v5.68h1.041v-2.328h2.615v-.897h-2.615v-1.55H122v-.905zm-27.674.776q.52 0 .88.248.368.248.56.712.2.465.2 1.112 0 .648-.2 1.111a1.55 1.55 0 0 1-.56.705q-.36.24-.88.24-.504 0-.873-.24a1.6 1.6 0 0 1-.568-.705q-.191-.465-.191-1.111 0-.648.191-1.112.2-.464.568-.712.369-.248.873-.248m24.104 0q.52 0 .88.248.368.248.56.712.2.465.2 1.112 0 .648-.2 1.111-.192.457-.56.705-.36.24-.88.24-.505 0-.873-.24a1.6 1.6 0 0 1-.567-.705q-.193-.465-.193-1.111 0-.648.193-1.112a1.6 1.6 0 0 1 .567-.712q.368-.248.873-.248m-36.883.271.817 2.4h-1.641ZM29 42v4h4v-4zm55.885 3.031q-.64 0-1.096.217a1.55 1.55 0 0 0-.953 1.465q0 .464.193.775.192.304.616.512.424.2 1.128.36.584.136.88.28.295.136.4.311.104.168.103.385.001.24-.127.408a.77.77 0 0 1-.361.248q-.231.08-.566.08-.393 0-.672-.129-.273-.135-.442-.39a1.55 1.55 0 0 1-.207-.625l-1.056.064q.048.591.336 1.04.296.44.808.689.511.248 1.215.248.648 0 1.129-.201.48-.21.744-.584.264-.384.264-.905a1.46 1.46 0 0 0-.192-.752q-.192-.327-.64-.576-.448-.247-1.207-.406a7 7 0 0 1-.786-.225q-.28-.111-.392-.263a.67.67 0 0 1-.104-.385q0-.336.256-.535.264-.21.713-.21.36.001.608.137a.97.97 0 0 1 .4.36q.152.232.191.545l1.05-.05a2.3 2.3 0 0 0-.337-.976 1.9 1.9 0 0 0-.744-.664q-.472-.248-1.152-.248m29.37 0q-.638 0-1.095.217a1.6 1.6 0 0 0-.705.592 1.55 1.55 0 0 0-.246.873q0 .464.191.775.192.304.616.512.424.2 1.129.36.583.136.878.28.297.136.4.311.105.168.104.385.001.24-.127.408a.77.77 0 0 1-.36.248q-.233.08-.567.08-.393 0-.672-.129-.273-.135-.442-.39a1.55 1.55 0 0 1-.207-.625l-1.056.064q.048.591.336 1.04.296.44.808.689t1.215.248q.648 0 1.129-.201.48-.21.744-.584.264-.384.264-.905a1.46 1.46 0 0 0-.192-.752q-.193-.327-.64-.576-.448-.247-1.207-.406a7 7 0 0 1-.785-.225q-.28-.111-.391-.263a.67.67 0 0 1-.106-.385q0-.336.256-.535.265-.21.713-.21.36.001.608.137a.97.97 0 0 1 .4.36q.152.232.191.545l1.05-.05a2.3 2.3 0 0 0-.337-.976 1.87 1.87 0 0 0-.744-.664q-.472-.248-1.152-.248m5.345 0q-.64 0-1.096.217a1.6 1.6 0 0 0-.703.592 1.55 1.55 0 0 0-.248.873q0 .464.191.775.192.304.615.512.425.2 1.13.36.582.136.878.28.297.136.4.311.105.168.104.385 0 .24-.127.408-.12.16-.36.248-.231.08-.568.08-.391 0-.671-.129-.273-.135-.442-.39a1.55 1.55 0 0 1-.207-.625l-1.057.064q.048.591.336 1.04.297.44.809.689t1.217.248q.648 0 1.127-.201.48-.21.744-.584.264-.384.264-.905a1.46 1.46 0 0 0-.192-.752q-.193-.327-.64-.576-.448-.247-1.208-.406a7 7 0 0 1-.785-.225q-.279-.111-.39-.263a.67.67 0 0 1-.106-.385q0-.336.256-.535.264-.21.713-.21.36.001.607.137a.97.97 0 0 1 .4.36q.153.232.192.545l1.049-.05a2.3 2.3 0 0 0-.336-.976 1.87 1.87 0 0 0-.744-.664q-.473-.248-1.152-.248m-31.44.13v5.679h1.04v-5.68zm2.32 0v5.679h3.737v-.904H91.52V45.16zm4.48 0v5.679h3.735v-.904H96V45.16zm4.384 0v5.679h1.04v-5.68zm2.191 0v5.679h1.041v-4.153l2.416 4.153h1.248v-5.68h-1.04v4.272l-2.448-4.272zm5.858 0v5.679h3.886v-.904h-2.847v-1.497h2.687v-.894h-2.687v-1.48h2.785v-.905z"/></svg>