<svg xmlns="http://www.w3.org/2000/svg" xml:space="preserve" width="64" height="64" viewBox="0 0 64 64"><path d="M0 0v64h64V0Zm2 2h60v60H2Zm13.563 7.174 3.04 11.36h2.32l1.983-7.776 1.985 7.775h2.304l3.04-11.36h-2.208l-2.064 8.481-2.096-8.48h-1.935l-2.096 8.48-2.08-8.48zm15.14 0v11.36h7.777v-1.81h-5.697v-2.992h5.377v-1.79h-5.377V10.98h5.569V9.174Zm8.758 0v11.36h4.832q1.984 0 3.057-.768 1.087-.784 1.087-2.352 0-1.232-.785-1.969-.71-.682-1.974-.785a2.9 2.9 0 0 0 1.111-.318q.575-.304.863-.832.305-.544.305-1.264 0-1.6-1.088-2.336-1.073-.735-3.152-.736Zm2.08 1.76h2.111q1.056-.001 1.618.367.559.368.558 1.136 0 .736-.576 1.12t-1.6.384h-2.111zm0 4.64h2.656q.992 0 1.551.416.56.416.56 1.2 0 .783-.576 1.183-.559.4-1.535.4h-2.656Zm-21.512 8.96q0 2.004-.511 3.198-.47 1.153-1.579 1.623-1.11.47-2.945.47h-2.601v4.224h6.484v20.777h5.547V24.533Zm21.51 0L27.246 44.245v4.522h15.19v6.058h5.544v-6.058h3.627v-4.82H47.98V24.532Zm.897 7.21v12.203h-9.131z"/></svg>